<svg width="20" height="20" viewBox="0 0 20 20" fill="none" xmlns="http://www.w3.org/2000/svg">
<path opacity="0.01" d="M0 0H20V20H0V0Z" fill="#C3CADF"/>
<path fill-rule="evenodd" clip-rule="evenodd" d="M4 2C3.44772 2 3 2.44772 3 3V15C3 15.5523 3.44772 16 4 16V18C2.34315 18 1 16.6569 1 15V3C1 1.34315 2.34315 0 4 0H14C15.6569 0 17 1.34315 17 3V4H15V3C15 2.44772 14.5523 2 14 2H4Z" fill="#3E4056"/>
<path d="M5 5C5 4.44772 5.44772 4 6 4H12C12.5523 4 13 4.44772 13 5C13 5.55228 12.5523 6 12 6H6C5.44772 6 5 5.55228 5 5Z" fill="#3E4056"/>
<path fill-rule="evenodd" clip-rule="evenodd" d="M5 9C5 8.44772 5.44772 8 6 8H10L8 10H6C5.44772 10 5 9.55228 5 9Z" fill="#3E4056"/>
<path fill-rule="evenodd" clip-rule="evenodd" d="M13.8933 6.92764C14.6743 6.14659 15.9407 6.14659 16.7217 6.92764L19.5501 9.75607C20.3312 10.5371 20.3312 11.8034 19.5501 12.5845L12.6064 19.5282C12.5241 19.6105 12.4156 19.6615 12.2997 19.6724L8.58474 20.0219C7.32474 20.1405 6.27281 19.0737 6.40902 17.8155L6.80325 14.1739C6.81552 14.0605 6.86617 13.9548 6.94679 13.8741L13.8933 6.92764ZM14.6004 9.04896C14.9909 8.65844 15.6241 8.65844 16.0146 9.04896L17.4288 10.4632C17.8193 10.8537 17.8193 11.4869 17.4288 11.8774L16.7217 12.5845L13.8933 9.75607L14.6004 9.04896ZM12.4791 11.1703L8.94404 14.7053L8.53083 16.7702C8.39079 17.47 9.00782 18.087 9.70762 17.9469L11.7725 17.5337L15.3075 13.9987L12.4791 11.1703Z" fill="#3E4056"/>
</svg>
