<svg width="16" height="16" viewBox="0 0 16 16" fill="none" xmlns="http://www.w3.org/2000/svg">
<g id="a/icon_delete">
<path id="Oval 382 Copy (Stroke)" fill-rule="evenodd" clip-rule="evenodd" d="M3.75736 12.2426C6.10051 14.5858 9.8995 14.5858 12.2426 12.2426C14.5858 9.8995 14.5858 6.10051 12.2426 3.75736C9.8995 1.41421 6.10051 1.41421 3.75736 3.75736C1.41421 6.10051 1.41421 9.8995 3.75736 12.2426ZM13.6569 13.6569C10.5327 16.781 5.46734 16.781 2.34315 13.6569C-0.781049 10.5327 -0.781049 5.46734 2.34315 2.34315C5.46734 -0.781049 10.5327 -0.781049 13.6569 2.34315C16.781 5.46734 16.781 10.5327 13.6569 13.6569Z" fill="#3E4056"/>
<path id="Path 2 (Stroke)" fill-rule="evenodd" clip-rule="evenodd" d="M11.7071 5.70711L5.70706 11.7071L4.29285 10.2929L10.2928 4.29289L11.7071 5.70711Z" fill="#3E4056"/>
<path id="Path 2 Copy (Stroke)" fill-rule="evenodd" clip-rule="evenodd" d="M4.29294 5.70711L10.2929 11.7071L11.7072 10.2929L5.70715 4.29289L4.29294 5.70711Z" fill="#3E4056"/>
</g>
</svg>
