<svg width="24" height="24" viewBox="0 0 24 24" fill="none" xmlns="http://www.w3.org/2000/svg">
<path d="M20.75 4C21.4403 4 22 4.55963 22 5.25C22 5.94037 21.4403 6.5 20.75 6.5H3.25C2.55965 6.5 2 5.94037 2 5.25C2 4.55963 2.55965 4 3.25 4H20.75ZM20.75 10.75C21.4403 10.75 22 11.3096 22 12C22 12.6904 21.4403 13.25 20.75 13.25H3.25C2.55965 13.25 2 12.6904 2 12C2 11.3096 2.55965 10.75 3.25 10.75H20.75ZM20.75 17.5C21.4403 17.5 22 18.0596 22 18.75C22 19.4404 21.4403 20 20.75 20H3.25C2.55965 20 2 19.4404 2 18.75C2 18.0596 2.55965 17.5 3.25 17.5H20.75Z" fill="#506788"/>
</svg>
