<svg width="32" height="32" viewBox="0 0 32 32" fill="none" xmlns="http://www.w3.org/2000/svg">
<g id="notifications" opacity="0.98">
<path id="Rectangle 2 Copy 3" opacity="0.01" d="M0 0H32V32H0V0Z" fill="#EFF3F6"/>
<path id="Shape (Stroke)" fill-rule="evenodd" clip-rule="evenodd" d="M9 21.6V20.8L10.6471 19.2L10.6471 14.8C10.6471 13.568 11.0884 12.4367 11.8267 11.5463C12.5602 10.6618 13.5868 10.0151 14.7647 9.744V9.2C14.7647 8.536 15.3165 8 16 8C16.6835 8 17.2353 8.536 17.2353 9.2V9.744C19.6065 10.2898 21.3529 12.3515 21.3529 14.8V19.2H19.3529V14.8C19.3529 13.336 18.3023 12.0419 16.7867 11.693L16 11.512L15.2133 11.693C13.6977 12.0419 12.6471 13.336 12.6471 14.8V19.6H20.9644L21.3529 19.2L23 20.8V21.6H9ZM17.6471 22.4H14.3529C14.3529 22.8766 14.5703 23.3062 14.9135 23.6C15.1194 23.7762 15.3705 23.9035 15.6471 23.9628C15.7608 23.9871 15.879 24 16 24C16.121 24 16.2392 23.9871 16.3529 23.9628C16.6295 23.9035 16.8806 23.7762 17.0865 23.6C17.4297 23.3062 17.6471 22.8766 17.6471 22.4Z" fill="#3E4056"/>
</g>
</svg>
