<?xml version="1.0" standalone="no"?>
<!DOCTYPE svg PUBLIC "-//W3C//DTD SVG 20010904//EN"
 "http://www.w3.org/TR/2001/REC-SVG-20010904/DTD/svg10.dtd">
<svg version="1.0" xmlns="http://www.w3.org/2000/svg"
 width="533.000000pt" height="533.000000pt" viewBox="0 0 533.000000 533.000000"
 preserveAspectRatio="xMidYMid meet">
<metadata>
Created by potrace 1.11, written by Peter Selinger 2001-2013
</metadata>
<g transform="translate(0.000000,533.000000) scale(0.100000,-0.100000)"
fill="#000000" stroke="none">
<path d="M3770 5221 c0 -9 -22 -48 -285 -501 -81 -140 -156 -270 -166 -288
-59 -103 -102 -178 -154 -267 -32 -55 -100 -174 -153 -265 -52 -91 -129 -223
-170 -295 -41 -71 -106 -183 -143 -247 -48 -84 -70 -114 -76 -105 -10 12 -96
158 -145 247 -30 53 -200 348 -234 405 -13 22 -44 76 -69 120 -26 44 -54 94
-64 111 -10 17 -61 105 -113 195 -95 165 -254 440 -396 686 -43 73 -84 146
-93 162 l-16 30 -174 -100 c-96 -56 -203 -118 -239 -139 -36 -21 -173 -100
-305 -175 -132 -76 -252 -146 -267 -156 -15 -11 -29 -19 -32 -19 -3 0 -46 -25
-97 -55 -50 -30 -95 -55 -100 -55 -22 0 -15 -25 27 -97 37 -62 314 -541 406
-703 27 -46 359 -621 503 -870 62 -107 122 -211 133 -230 94 -165 165 -286
172 -294 5 -5 44 11 92 39 46 26 99 56 118 67 110 63 439 254 465 269 16 11
41 24 55 31 14 7 27 15 30 18 3 3 25 16 49 29 l44 24 -25 -44 c-14 -24 -35
-60 -46 -79 -11 -19 -86 -150 -167 -290 -81 -140 -159 -275 -172 -300 -14 -25
-28 -49 -33 -55 -4 -5 -19 -30 -32 -55 -24 -42 -156 -271 -433 -750 -202 -351
-215 -373 -215 -376 0 -2 7 -4 15 -4 8 0 15 -4 15 -10 0 -5 4 -10 9 -10 9 0
95 -49 371 -210 63 -37 135 -78 160 -92 25 -14 179 -103 344 -198 164 -95 304
-173 312 -174 11 -1 123 188 586 994 56 96 108 186 117 200 9 14 21 34 27 46
11 21 229 399 357 619 38 66 79 136 90 155 29 52 217 378 507 880 141 245 265
459 274 475 9 17 21 37 26 45 5 8 32 53 59 100 261 454 317 551 337 587 13 23
53 92 89 153 36 61 65 114 65 119 0 4 -19 17 -42 29 -24 12 -50 26 -58 32 -34
22 -222 130 -228 130 -3 0 -13 6 -21 14 -9 7 -41 27 -71 43 -30 16 -127 72
-215 123 -88 51 -185 107 -215 123 -30 17 -66 38 -80 47 -14 9 -50 31 -80 47
-30 17 -91 51 -135 77 -83 47 -95 52 -95 37z"/>
</g>
</svg>
